# xmcd
#
# Track frame offsets: 
#        150
#        12845
#        24899
#        35626
#        47201
#        58429
#        68549
#        78292
#        89405
#        102233
#        115281
#        125694
#        136420
#        148909
#        159665
#        171386
#        184463
#        194142
#        204479
#        212776
#        222475
#        233773
#        244956
#        256395
#        268402
#
# Disc length: 3709 seconds
#
# Revision: 0
# Processed by: cddbd v1.5.2PL0 Copyright (c) Steve Scherf et al.
# Submitted via: ExactAudioCopy v1.0b3
#
DISCID=8e0e7b19
DTITLE=George Jones - Purely George Jones
DYEAR=2013
DGENRE=Country
TTITLE0=White Lightning
TTITLE1=A Girl I Used To Know
TTITLE2=Who Shot Sam?
TTITLE3=Window Up Above
TTITLE4=Gonna Come Get You
TTITLE5=Don't Stop The Music
TTITLE6=Too Much Water
TTITLE7=Tall, Tall Trees
TTITLE8=Colour Of The Blues
TTITLE9=Time Changes Everything
TTITLE10=Worried Mind
TTITLE11=Silver Dew On The Blue Grass Tonight
TTITLE12=San Antonio Rose
TTITLE13=Steel Guitar Rag
TTITLE14=Big Beaver
TTITLE15=Life To Go
TTITLE16=It's Been So Long
TTITLE17=Talk To Me Lonesome Heart
TTITLE18=Poor Man's Riches
TTITLE19=(I'll Be There) If You Ever Want Me
TTITLE20=Your Cheatin' Heart
TTITLE21=You Win Again
TTITLE22=Heartaches By The Number
TTITLE23=Oh Lonesome Me
TTITLE24=I Walk The Line
EXTD=
EXTT0=
EXTT1=
EXTT2=
EXTT3=
EXTT4=
EXTT5=
EXTT6=
EXTT7=
EXTT8=
EXTT9=
EXTT10=
EXTT11=
EXTT12=
EXTT13=
EXTT14=
EXTT15=
EXTT16=
EXTT17=
EXTT18=
EXTT19=
EXTT20=
EXTT21=
EXTT22=
EXTT23=
EXTT24=
PLAYORDER=
